<svg width="23" height="23" viewBox="0 0 23 23" fill="none" xmlns="http://www.w3.org/2000/svg">
<symbol id="logo-icon">
<mask id="mask0_3500_15" style="mask-type:alpha" maskUnits="userSpaceOnUse" x="0" y="0" width="23" height="23">
<path d="M0 18.4153L5.18842 23H20.4087L22.5879 19.9381L0.00191667 18.4153H0ZM13.4023 0V18.2783L20.4068 18.7603L13.4023 0ZM12.4478 3.08008L2.32779 17.481L12.4478 18.1642V3.08008Z" fill="black"/>
</mask>
<g mask="url(#mask0_3500_15)">
<path d="M0 0H23V23H0V0Z" fill="url(#paint0_linear_3500_15)"/>
</g>
<defs>
<linearGradient id="paint0_linear_3500_15" x1="9.79396" y1="3.48665e-06" x2="21.5409" y2="0.444325" gradientUnits="userSpaceOnUse">
<stop stop-color="#BEC7C2"/>
<stop offset="1" stop-color="#A1B5BA"/>
</linearGradient>
</defs>
</symbol>
<symbol id="facebook-icon">
<rect x="0.5" y="0.5" width="39" height="39" rx="5.5" stroke="#F6F5EF" stroke-opacity="0.5"/>
<path d="M23.1906 13.154H25V10.133C24.1239 10.0431 23.2437 9.99871 22.3628 10C19.7449 10 17.9548 11.577 17.9548 14.465V16.954H15V20.336H17.9548V29H21.4966V20.336H24.4418L24.8845 16.954H21.4966V14.7975C21.4966 13.8 21.7661 13.154 23.1906 13.154Z" fill="#F6F5EF"/>
</symbol>
<symbol id="instagram-icon">
<rect x="0.5" y="0.5" width="39" height="39" rx="5.5" stroke="#F6F5EF" stroke-opacity="0.5"/>
<path d="M24.806 14.114C24.5924 14.114 24.3836 14.1773 24.206 14.296C24.0284 14.4147 23.89 14.5834 23.8082 14.7807C23.7265 14.978 23.7051 15.1952 23.7468 15.4047C23.7884 15.6142 23.8913 15.8066 24.0423 15.9577C24.1934 16.1087 24.3858 16.2116 24.5953 16.2532C24.8048 16.2949 25.022 16.2735 25.2193 16.1918C25.4166 16.11 25.5853 15.9716 25.704 15.794C25.8227 15.6164 25.886 15.4076 25.886 15.194C25.886 14.9076 25.7722 14.6329 25.5697 14.4303C25.3671 14.2278 25.0924 14.114 24.806 14.114ZM28.946 16.292C28.9285 15.5453 28.7886 14.8065 28.532 14.105C28.3032 13.5048 27.947 12.9614 27.488 12.512C27.0423 12.0507 26.4976 11.6968 25.895 11.477C25.1954 11.2125 24.4558 11.0695 23.708 11.054C22.754 11 22.448 11 20 11C17.552 11 17.246 11 16.292 11.054C15.5442 11.0695 14.8046 11.2125 14.105 11.477C13.5035 11.699 12.9592 12.0526 12.512 12.512C12.0507 12.9577 11.6968 13.5024 11.477 14.105C11.2125 14.8046 11.0695 15.5442 11.054 16.292C11 17.246 11 17.552 11 20C11 22.448 11 22.754 11.054 23.708C11.0695 24.4558 11.2125 25.1954 11.477 25.895C11.6968 26.4976 12.0507 27.0423 12.512 27.488C12.9592 27.9474 13.5035 28.301 14.105 28.523C14.8046 28.7875 15.5442 28.9305 16.292 28.946C17.246 29 17.552 29 20 29C22.448 29 22.754 29 23.708 28.946C24.4558 28.9305 25.1954 28.7875 25.895 28.523C26.4976 28.3032 27.0423 27.9493 27.488 27.488C27.949 27.0403 28.3055 26.4964 28.532 25.895C28.7886 25.1935 28.9285 24.4547 28.946 23.708C28.946 22.754 29 22.448 29 20C29 17.552 29 17.246 28.946 16.292ZM27.326 23.6C27.3194 24.1713 27.216 24.7373 27.02 25.274C26.8763 25.6657 26.6455 26.0196 26.345 26.309C26.0531 26.6065 25.6999 26.8368 25.31 26.984C24.7733 27.18 24.2073 27.2834 23.636 27.29C22.736 27.335 22.403 27.344 20.036 27.344C17.669 27.344 17.336 27.344 16.436 27.29C15.8428 27.3011 15.2521 27.2098 14.69 27.02C14.3172 26.8653 13.9802 26.6355 13.7 26.345C13.4013 26.0559 13.1734 25.7017 13.034 25.31C12.8143 24.7656 12.6924 24.1867 12.674 23.6C12.674 22.7 12.62 22.367 12.62 20C12.62 17.633 12.62 17.3 12.674 16.4C12.678 15.8159 12.7847 15.2372 12.989 14.69C13.1474 14.3101 13.3906 13.9715 13.7 13.7C13.9734 13.3906 14.3114 13.1448 14.69 12.98C15.2386 12.782 15.8168 12.6786 16.4 12.674C17.3 12.674 17.633 12.62 20 12.62C22.367 12.62 22.7 12.62 23.6 12.674C24.1713 12.6806 24.7373 12.784 25.274 12.98C25.683 13.1318 26.0501 13.3786 26.345 13.7C26.6399 13.9765 26.8704 14.3145 27.02 14.69C27.22 15.238 27.3236 15.8166 27.326 16.4C27.371 17.3 27.38 17.633 27.38 20C27.38 22.367 27.371 22.7 27.326 23.6ZM20 15.383C19.0872 15.3848 18.1955 15.6571 17.4374 16.1655C16.6793 16.6739 16.0889 17.3956 15.7409 18.2394C15.3928 19.0832 15.3027 20.0112 15.4818 20.9062C15.661 21.8013 16.1014 22.6231 16.7475 23.2679C17.3935 23.9127 18.2162 24.3515 19.1116 24.5289C20.0069 24.7064 20.9348 24.6144 21.7779 24.2647C22.621 23.915 23.3416 23.3232 23.8485 22.5641C24.3554 21.8051 24.626 20.9128 24.626 20C24.6272 19.3926 24.5083 18.7909 24.2761 18.2297C24.0439 17.6684 23.7031 17.1585 23.2732 16.7294C22.8433 16.3004 22.3328 15.9605 21.771 15.7294C21.2093 15.4984 20.6074 15.3806 20 15.383ZM20 22.997C19.4072 22.997 18.8278 22.8212 18.335 22.4919C17.8421 22.1626 17.458 21.6945 17.2311 21.1469C17.0043 20.5993 16.9449 19.9967 17.0606 19.4153C17.1762 18.834 17.4617 18.2999 17.8808 17.8808C18.2999 17.4617 18.834 17.1762 19.4153 17.0606C19.9967 16.9449 20.5993 17.0043 21.1469 17.2311C21.6945 17.458 22.1626 17.8421 22.4919 18.335C22.8212 18.8278 22.997 19.4072 22.997 20C22.997 20.3936 22.9195 20.7833 22.7689 21.1469C22.6183 21.5105 22.3975 21.8409 22.1192 22.1192C21.8409 22.3975 21.5105 22.6183 21.1469 22.7689C20.7833 22.9195 20.3936 22.997 20 22.997Z" fill="#F6F5EF"/>
</symbol>
<symbol id="youtube-icon">
<rect x="0.5" y="0.5" width="39" height="39" rx="5.5" stroke="#F6F5EF" stroke-opacity="0.5"/>
<path fill-rule="evenodd" clip-rule="evenodd" d="M25.15 13.7499C24.3 13.6999 22.55 13.6499 19.9 13.6499H19.55C17 13.6499 15.3 13.6999 14.45 13.7999C13.3 13.8999 12.5 14.1999 12.05 14.5999C11.65 14.9499 11.35 15.5999 11.25 16.4499C11.2 16.9999 11.15 18.1499 11.15 19.8999V20.1499C11.15 21.7999 11.2 22.9499 11.3 23.4999C11.45 24.2999 11.7 24.8999 12.2 25.2499C12.7 25.6499 13.55 25.8999 14.75 25.9999C15.6 26.0499 17.35 26.0999 20 26.0999H20.35C22.9 26.0999 24.6 26.0499 25.45 25.9499C26.6 25.8499 27.4 25.5499 27.85 25.1499C28.25 24.7999 28.55 24.1499 28.65 23.2999C28.7 22.7499 28.75 21.5999 28.75 19.8499V19.5999C28.75 17.9499 28.7 16.7999 28.6 16.2499C28.45 15.4499 28.2 14.8499 27.7 14.4999C27.2 14.0999 26.35 13.8499 25.15 13.7499ZM23.2 19.8999L17.7 23.1999V16.5999L23.2 19.8999Z" fill="#F6F5EF"/>
</symbol>
<symbol id="human-icon">
<circle cx="26" cy="26" r="25" fill="#E8E8E8"/>
<circle cx="26" cy="26" r="25" fill="url(#pattern0_92_1533)"/>
<circle cx="26" cy="26" r="25" stroke="#93ABAE" stroke-width="2"/>
<defs>
<pattern id="pattern0_92_1533" patternContentUnits="objectBoundingBox" width="1" height="1">
<use xlink:href="#image0_92_1533" transform="translate(-0.278956 0.0744486) scale(0.000380349)"/>
</pattern>
<svg width="84" height="122" viewBox="0 0 84 122" fill="none" xmlns="http://www.w3.org/2000/svg">
<g clip-path="url(#clip0_1_81)">
<path d="M85.6544 95.4833C105.586 81.4273 110.668 54.3283 97.0059 34.9559C83.344 15.5835 56.1114 11.2738 36.1802 25.3298C16.249 39.3859 11.1668 66.4849 24.8287 85.8573C38.4906 105.23 65.7232 109.539 85.6544 95.4833Z" fill="#FAD34F"/>
<path d="M57.1683 40.788C58.0918 42.0975 56.639 42.2187 55.2917 43.1688C53.9444 44.119 53.2143 45.5408 52.2891 44.2289C51.3639 42.917 51.7092 41.0874 53.0565 40.1372C54.4021 39.1847 56.2431 39.4761 57.1683 40.788Z" fill="white">
<path d="M66.4913 34.2131C67.4148 35.5226 65.962 35.6438 64.6147 36.594C63.2674 37.5441 62.5373 38.9659 61.6121 37.654C60.6869 36.3422 61.0322 34.5125 62.3795 33.5624C63.7251 32.6099 65.5661 32.9012 66.4913 34.2131Z" fill="white"/>
<path d="M68.467 41.9342C70.2711 44.4925 69.5999 48.0717 66.9678 49.9279C64.3358 51.7841 60.7389 51.2149 58.9348 48.6566C57.1306 46.0983 61.1942 47.3293 63.8262 45.4731C66.4583 43.6169 66.6628 39.376 68.467 41.9342Z" fill="white"/>
</g>
<defs>
<clipPath id="clip0_1_81">
<rect width="88.3204" height="85.8441" fill="white" transform="translate(0 50.9014) rotate(-35.1926)"/>
</clipPath>
</defs>
</symbol>
<symbol id="close-icon">
<svg width="24" height="24" viewBox="0 0 24 24" fill="none" xmlns="http://www.w3.org/2000/svg">
<path d="M18 6L6 18" stroke="#F6F5EF" stroke-width="1.3" stroke-linecap="round" stroke-linejoin="round"/>
<path d="M6 6L18 18" stroke="#F6F5EF" stroke-width="1.3" stroke-linecap="round" stroke-linejoin="round"/>
</svg>
</symbol>
</svg>

<svg width="40" height="40" viewBox="0 0 40 40" fill="none" xmlns="http://www.w3.org/2000/svg">
<symbol id="facebook-icon">
<rect x="0.5" y="0.5" width="39" height="39" rx="5.5" stroke="#F6F5EF" stroke-opacity="0.5"/>
<path d="M23.1906 13.154H25V10.133C24.1239 10.0431 23.2437 9.99871 22.3628 10C19.7449 10 17.9548 11.577 17.9548 14.465V16.954H15V20.336H17.9548V29H21.4966V20.336H24.4418L24.8845 16.954H21.4966V14.7975C21.4966 13.8 21.7661 13.154 23.1906 13.154Z" fill="#F6F5EF"/>
</symbol>
</svg>

<svg width="40" height="40" viewBox="0 0 40 40" fill="none" xmlns="http://www.w3.org/2000/svg">
<symbol id="instagram-icon">
<rect x="0.5" y="0.5" width="39" height="39" rx="5.5" stroke="#F6F5EF" stroke-opacity="0.5"/>
<path d="M24.806 14.114C24.5924 14.114 24.3836 14.1773 24.206 14.296C24.0284 14.4147 23.89 14.5834 23.8082 14.7807C23.7265 14.978 23.7051 15.1952 23.7468 15.4047C23.7884 15.6142 23.8913 15.8066 24.0423 15.9577C24.1934 16.1087 24.3858 16.2116 24.5953 16.2532C24.8048 16.2949 25.022 16.2735 25.2193 16.1918C25.4166 16.11 25.5853 15.9716 25.704 15.794C25.8227 15.6164 25.886 15.4076 25.886 15.194C25.886 14.9076 25.7722 14.6329 25.5697 14.4303C25.3671 14.2278 25.0924 14.114 24.806 14.114ZM28.946 16.292C28.9285 15.5453 28.7886 14.8065 28.532 14.105C28.3032 13.5048 27.947 12.9614 27.488 12.512C27.0423 12.0507 26.4976 11.6968 25.895 11.477C25.1954 11.2125 24.4558 11.0695 23.708 11.054C22.754 11 22.448 11 20 11C17.552 11 17.246 11 16.292 11.054C15.5442 11.0695 14.8046 11.2125 14.105 11.477C13.5035 11.699 12.9592 12.0526 12.512 12.512C12.0507 12.9577 11.6968 13.5024 11.477 14.105C11.2125 14.8046 11.0695 15.5442 11.054 16.292C11 17.246 11 17.552 11 20C11 22.448 11 22.754 11.054 23.708C11.0695 24.4558 11.2125 25.1954 11.477 25.895C11.6968 26.4976 12.0507 27.0423 12.512 27.488C12.9592 27.9474 13.5035 28.301 14.105 28.523C14.8046 28.7875 15.5442 28.9305 16.292 28.946C17.246 29 17.552 29 20 29C22.448 29 22.754 29 23.708 28.946C24.4558 28.9305 25.1954 28.7875 25.895 28.523C26.4976 28.3032 27.0423 27.9493 27.488 27.488C27.949 27.0403 28.3055 26.4964 28.532 25.895C28.7886 25.1935 28.9285 24.4547 28.946 23.708C28.946 22.754 29 22.448 29 20C29 17.552 29 17.246 28.946 16.292ZM27.326 23.6C27.3194 24.1713 27.216 24.7373 27.02 25.274C26.8763 25.6657 26.6455 26.0196 26.345 26.309C26.0531 26.6065 25.6999 26.8368 25.31 26.984C24.7733 27.18 24.2073 27.2834 23.636 27.29C22.736 27.335 22.403 27.344 20.036 27.344C17.669 27.344 17.336 27.344 16.436 27.29C15.8428 27.3011 15.2521 27.2098 14.69 27.02C14.3172 26.8653 13.9802 26.6355 13.7 26.345C13.4013 26.0559 13.1734 25.7017 13.034 25.31C12.8143 24.7656 12.6924 24.1867 12.674 23.6C12.674 22.7 12.62 22.367 12.62 20C12.62 17.633 12.62 17.3 12.674 16.4C12.678 15.8159 12.7847 15.2372 12.989 14.69C13.1474 14.3101 13.3906 13.9715 13.7 13.7C13.9734 13.3906 14.3114 13.1448 14.69 12.98C15.2386 12.782 15.8168 12.6786 16.4 12.674C17.3 12.674 17.633 12.62 20 12.62C22.367 12.62 22.7 12.62 23.6 12.674C24.1713 12.6806 24.7373 12.784 25.274 12.98C25.683 13.1318 26.0501 13.3786 26.345 13.7C26.6399 13.9765 26.8704 14.3145 27.02 14.69C27.22 15.238 27.3236 15.8166 27.326 16.4C27.371 17.3 27.38 17.633 27.38 20C27.38 22.367 27.371 22.7 27.326 23.6ZM20 15.383C19.0872 15.3848 18.1955 15.6571 17.4374 16.1655C16.6793 16.6739 16.0889 17.3956 15.7409 18.2394C15.3928 19.0832 15.3027 20.0112 15.4818 20.9062C15.661 21.8013 16.1014 22.6231 16.7475 23.2679C17.3935 23.9127 18.2162 24.3515 19.1116 24.5289C20.0069 24.7064 20.9348 24.6144 21.7779 24.2647C22.621 23.915 23.3416 23.3232 23.8485 22.5641C24.3554 21.8051 24.626 20.9128 24.626 20C24.6272 19.3926 24.5083 18.7909 24.2761 18.2297C24.0439 17.6684 23.7031 17.1585 23.2732 16.7294C22.8433 16.3004 22.3328 15.9605 21.771 15.7294C21.2093 15.4984 20.6074 15.3806 20 15.383ZM20 22.997C19.4072 22.997 18.8278 22.8212 18.335 22.4919C17.8421 22.1626 17.458 21.6945 17.2311 21.1469C17.0043 20.5993 16.9449 19.9967 17.0606 19.4153C17.1762 18.834 17.4617 18.2999 17.8808 17.8808C18.2999 17.4617 18.834 17.1762 19.4153 17.0606C19.9967 16.9449 20.5993 17.0043 21.1469 17.2311C21.6945 17.458 22.1626 17.8421 22.4919 18.335C22.8212 18.8278 22.997 19.4072 22.997 20C22.997 20.3936 22.9195 20.7833 22.7689 21.1469C22.6183 21.5105 22.3975 21.8409 22.1192 22.1192C21.8409 22.3975 21.5105 22.6183 21.1469 22.7689C20.7833 22.9195 20.3936 22.997 20 22.997Z" fill="#F6F5EF"/>
</symbol>
</svg>

<svg width="40" height="40" viewBox="0 0 40 40" fill="none" xmlns="http://www.w3.org/2000/svg">
<symbol id="youtube-icon">
<rect x="0.5" y="0.5" width="39" height="39" rx="5.5" stroke="#F6F5EF" stroke-opacity="0.5"/>
<path fill-rule="evenodd" clip-rule="evenodd" d="M25.15 13.7499C24.3 13.6999 22.55 13.6499 19.9 13.6499H19.55C17 13.6499 15.3 13.6999 14.45 13.7999C13.3 13.8999 12.5 14.1999 12.05 14.5999C11.65 14.9499 11.35 15.5999 11.25 16.4499C11.2 16.9999 11.15 18.1499 11.15 19.8999V20.1499C11.15 21.7999 11.2 22.9499 11.3 23.4999C11.45 24.2999 11.7 24.8999 12.2 25.2499C12.7 25.6499 13.55 25.8999 14.75 25.9999C15.6 26.0499 17.35 26.0999 20 26.0999H20.35C22.9 26.0999 24.6 26.0499 25.45 25.9499C26.6 25.8499 27.4 25.5499 27.85 25.1499C28.25 24.7999 28.55 24.1499 28.65 23.2999C28.7 22.7499 28.75 21.5999 28.75 19.8499V19.5999C28.75 17.9499 28.7 16.7999 28.6 16.2499C28.45 15.4499 28.2 14.8499 27.7 14.4999C27.2 14.0999 26.35 13.8499 25.15 13.7499ZM23.2 19.8999L17.7 23.1999V16.5999L23.2 19.8999Z" fill="#F6F5EF"/>
</symbol>
</svg>

<svg width="48" height="48" viewBox="0 0 52 52" fill="none" xmlns="http://www.w3.org/2000/svg" xmlns:xlink="http://www.w3.org/1999/xlink">
<symbol id="human-icon">
<circle cx="26" cy="26" r="25" fill="#E8E8E8"/>
<circle cx="26" cy="26" r="25" fill="url(#pattern0_92_1533)"/>
<circle cx="26" cy="26" r="25" stroke="#93ABAE" stroke-width="2"/>
<defs>
<pattern id="pattern0_92_1533" patternContentUnits="objectBoundingBox" width="1" height="1">
<use xlink:href="#image0_92_1533" transform="translate(-0.278956 0.0744486) scale(0.000380349)"/>
</pattern>
<svg width="84" height="122" viewBox="0 0 84 122" fill="none" xmlns="http://www.w3.org/2000/svg">
<g clip-path="url(#clip0_1_81)">
<path d="M85.6544 95.4833C105.586 81.4273 110.668 54.3283 97.0059 34.9559C83.344 15.5835 56.1114 11.2738 36.1802 25.3298C16.249 39.3859 11.1668 66.4849 24.8287 85.8573C38.4906 105.23 65.7232 109.539 85.6544 95.4833Z" fill="#FAD34F"/>
<path d="M57.1683 40.788C58.0918 42.0975 56.639 42.2187 55.2917 43.1688C53.9444 44.119 53.2143 45.5408 52.2891 44.2289C51.3639 42.917 51.7092 41.0874 53.0565 40.1372C54.4021 39.1847 56.2431 39.4761 57.1683 40.788Z" fill="white">
<path d="M66.4913 34.2131C67.4148 35.5226 65.962 35.6438 64.6147 36.594C63.2674 37.5441 62.5373 38.9659 61.6121 37.654C60.6869 36.3422 61.0322 34.5125 62.3795 33.5624C63.7251 32.6099 65.5661 32.9012 66.4913 34.2131Z" fill="white"/>
<path d="M68.467 41.9342C70.2711 44.4925 69.5999 48.0717 66.9678 49.9279C64.3358 51.7841 60.7389 51.2149 58.9348 48.6566C57.1306 46.0983 61.1942 47.3293 63.8262 45.4731C66.4583 43.6169 66.6628 39.376 68.467 41.9342Z" fill="white"/>
</g>
<defs>
<clipPath id="clip0_1_81">
<rect width="88.3204" height="85.8441" fill="white" transform="translate(0 50.9014) rotate(-35.1926)"/>
</clipPath>
</defs>
</symbol>
</svg>



